ffmpeg started on 2016-11-26 at 19:15:01
Report written to "Output/NVENCh264/results/ffmpeg/sintelll10000k.log"
Command line:
Tools/ffmpeg/ffmpeg -benchmark -y -i Input/y4m/sintel.y4m -c:v h264_nvenc -preset ll -b:v 10000k -an Output/NVENCh264/encoded/sintelll10000k.mkv
ffmpeg version N-82227-gdb23fde Copyright (c) 2000-2016 the FFmpeg developers
  built with gcc 5.4.0 (Ubuntu 5.4.0-6ubuntu1~16.04.2) 20160609
  configuration: --prefix=/home/jaroslav/ffmpeg_build --pkg-config-flags=--static --extra-cflags=-I/home/jaroslav/ffmpeg_build/include --extra-ldflags=-L/home/jaroslav/ffmpeg_build/lib --bindir=/home/jaroslav/bin --enable-gpl --enable-libass --enable-libfdk-aac --enable-libfreetype --enable-libmp3lame --enable-libopus --enable-libtheora --enable-libvorbis --enable-libvpx --enable-libx264 --enable-libx265 --enable-nvenc --enable-libmfx --enable-libxvid --enable-libgsm --enable-libopencore-amrnb --enable-version3 --enable-nonfree
  libavutil      55. 35.100 / 55. 35.100
  libavcodec     57. 66.101 / 57. 66.101
  libavformat    57. 57.100 / 57. 57.100
  libavdevice    57.  2.100 / 57.  2.100
  libavfilter     6. 66.100 /  6. 66.100
  libswscale      4.  3.100 /  4.  3.100
  libswresample   2.  4.100 /  2.  4.100
  libpostproc    54.  2.100 / 54.  2.100
Input #0, yuv4mpegpipe, from 'Input/y4m/sintel.y4m':
  Duration: 00:00:20.83, start: 0.000000, bitrate: 2057307 kb/s
    Stream #0:0: Video: rawvideo (I420 / 0x30323449), yuv420p(progressive), 4096x1744, SAR 1:1 DAR 256:109, 24 fps, 24 tbr, 24 tbn, 24 tbc
[h264_nvenc @ 0x34b11c0] The variable bitrate rate-control requires the 'qmin' and/or 'qmax' option set.
Output #0, matroska, to 'Output/NVENCh264/encoded/sintelll10000k.mkv':
  Metadata:
    encoder         : Lavf57.57.100
    Stream #0:0: Video: h264 (h264_nvenc) (Main) (H264 / 0x34363248), yuv420p, 4096x1744 [SAR 1:1 DAR 256:109], q=-1--1, 10000 kb/s, 24 fps, 1k tbn, 24 tbc
    Metadata:
      encoder         : Lavc57.66.101 h264_nvenc
    Side data:
      cpb: bitrate max/min/avg: 0/0/10000000 buffer size: 20000000 vbv_delay: -1
Stream mapping:
  Stream #0:0 -> #0:0 (rawvideo (native) -> h264 (h264_nvenc))
Press [q] to stop, [?] for help
frame=    3 fps=1.9 q=0.0 size=       0kB time=00:00:00.00 bitrate=N/A speed=   0x    frame=   10 fps=4.7 q=0.0 size=       0kB time=00:00:00.00 bitrate=N/A speed=   0x    frame=   31 fps= 12 q=27.0 size=       1kB time=00:00:00.00 bitrate=5984.0kbits/s speed=0.00038x    frame=   52 fps= 17 q=35.0 size=       1kB time=00:00:00.87 bitrate=   6.8kbits/s speed=0.279x    frame=   73 fps= 20 q=33.0 size=       1kB time=00:00:01.75 bitrate=   3.4kbits/s speed=0.479x    frame=   94 fps= 22 q=34.0 size=       1kB time=00:00:02.62 bitrate=   2.3kbits/s speed=0.628x    frame=  115 fps= 25 q=28.0 size=       1kB time=00:00:03.50 bitrate=   1.7kbits/s speed=0.746x    frame=  135 fps= 26 q=30.0 size=    5166kB time=00:00:04.33 bitrate=9764.0kbits/s speed=0.834x    frame=  156 fps= 27 q=32.0 size=    5711kB time=00:00:05.20 bitrate=8981.9kbits/s speed=0.912x    frame=  177 fps= 28 q=32.0 size=    5711kB time=00:00:06.08 bitrate=7690.1kbits/s speed=0.978x    frame=  179 fps= 23 q=32.0 size=    5711kB time=00:00:06.16 bitrate=7585.4kbits/s speed=0.804x    frame=  180 fps= 16 q=32.0 size=    5711kB time=00:00:06.20 bitrate=7535.3kbits/s speed=0.56x    frame=  181 fps= 16 q=32.0 size=    5711kB time=00:00:06.25 bitrate=7484.7kbits/s speed=0.537x    frame=  202 fps= 17 q=29.0 size=    5711kB time=00:00:07.12 bitrate=6565.6kbits/s speed=0.586x    frame=  223 fps= 18 q=29.0 size=    5711kB time=00:00:08.00 bitrate=5847.6kbits/s speed=0.631x    frame=  244 fps= 19 q=31.0 size=    5711kB time=00:00:08.87 bitrate=5271.1kbits/s speed=0.673x    frame=  264 fps= 19 q=30.0 size=   10841kB time=00:00:09.70 bitrate=9147.3kbits/s speed=0.709x    frame=  285 fps= 20 q=28.0 size=   10841kB time=00:00:10.58 bitrate=8391.0kbits/s speed=0.745x    frame=  306 fps= 21 q=29.0 size=   13266kB time=00:00:11.45 bitrate=9484.0kbits/s speed=0.778x    frame=  327 fps= 21 q=27.0 size=   13266kB time=00:00:12.33 bitrate=8811.2kbits/s speed=0.809x    frame=  348 fps= 22 q=24.0 size=   13266kB time=00:00:13.20 bitrate=8227.6kbits/s speed=0.839x    frame=  369 fps= 23 q=25.0 size=   13266kB time=00:00:14.08 bitrate=7716.4kbits/s speed=0.866x    frame=  378 fps= 23 q=24.0 size=   13266kB time=00:00:14.45 bitrate=7516.3kbits/s speed=0.862x    frame=  398 fps= 23 q=25.0 size=   18392kB time=00:00:15.29 bitrate=9852.2kbits/s speed=0.885x    frame=  419 fps= 24 q=24.0 size=   18392kB time=00:00:16.16 bitrate=9319.0kbits/s speed=0.908x    frame=  440 fps= 24 q=30.0 size=   18392kB time=00:00:17.04 bitrate=8840.5kbits/s speed=0.931x    frame=  461 fps= 24 q=30.0 size=   21226kB time=00:00:17.91 bitrate=9704.4kbits/s speed=0.951x    frame=  469 fps= 24 q=30.0 size=   21226kB time=00:00:18.25 bitrate=9527.4kbits/s speed=0.944x    frame=  490 fps= 25 q=27.0 size=   21226kB time=00:00:19.12 bitrate=9091.5kbits/s speed=0.963x    frame=  498 fps= 24 q=29.0 size=   21226kB time=00:00:19.45 bitrate=8935.9kbits/s speed=0.955x    frame=  500 fps= 24 q=29.0 Lsize=   25457kB time=00:00:20.79 bitrate=10029.3kbits/s speed=1.02x    
video:25452kB audio:0kB subtitle:0kB other streams:0kB global headers:0kB muxing overhead: 0.019116%
bench: utime=1.000s
bench: maxrss=1197420kB
